<svg
  xmlns="http://www.w3.org/2000/svg"
  viewBox="0 0 431.104 431.104"
  width="20px"
  height="20px"
>
  <path
    fill='currentColor'
    d="M351.744 87.296h-45.568v-7.168c0-30.72-24.576-54.784-54.784-54.784h-70.656c-30.72 0-54.784 24.576-54.784 54.784v7.168H80.384c-44.544 0-79.872 35.328-79.872 79.36v9.728h430.592v-9.728a79.102 79.102 0 00-79.36-79.36zm-82.944 0H162.304v-7.168c0-10.24 7.68-18.432 18.432-18.432h70.144c10.24 0 18.432 7.68 18.432 18.432l-.512 7.168zM0 197.376v129.536c0 43.52 35.84 78.848 79.36 78.848h271.872a79.102 79.102 0 0079.36-79.36V197.376H0z"
  />
</svg>