<svg version="1" xmlns="http://www.w3.org/2000/svg" width="666.667" height="666.667" viewBox="0 0 500 500"><path d="M74 174.6c-32.8 5.4-55.7 31-59.5 66.4-5.1 47.9 19.1 84.4 61.7 93 6.2 1.2 21.2 1.5 26.8.6 16.1-2.9 34-14 40.7-25.4 1.4-2.3 2.6-4.2 2.6-4.2.1 0 .3 6 .5 13.2.2 7.3.5 13.4.7 13.6.3.4 26.4.6 32 .3 2-.1 2-.8 2-77.6V177h-17.2c-13.1 0-17.3.3-17.4 1.2-.2 1.4-.6 11.3-.8 19.2l-.1 4.9-3.6-4.9c-11-14.7-31.9-24.4-52.3-24.1-4.8 0-12 .6-16.1 1.3zm33.5 30.9c14.5 2.7 27.8 15.6 33.1 32.1 2.2 7 2.7 24.4.9 32.2-5 21.4-22.2 35-44.4 35-13.5 0-23-3.6-31.2-11.9-8.7-8.9-12.9-19.8-13.4-35.4-1.3-36.7 21.4-58.2 55-52zM304.8 175.1c-15.7 3.7-28.8 13.4-35.7 26.4l-2.1 4V177l-18.2.2-18.3.3V254c-.1 42.1 0 76.9.2 77.5.2.6 7.2 1 18.5.9l18.2-.1-.1-40.9c0-45.6.4-49.9 6.2-61.3 9-18 25.4-28.1 43.1-26.8 13.2 1 20.1 6.8 23 19.3.3 1.6.7 26.9.9 56.2l.3 53.4 18.1.1 18.1.2.1-40c.1-45.3.2-47.1 2.3-55.5 1.8-6.8 5.5-16 6.5-16 .4 0 1.5-1.5 2.5-3.3 4.5-8.1 16.2-13.8 29.2-14.3 4.4-.2 9.7.2 11.7.8 5.3 1.6 10.4 6.2 12.7 11.5 4.8 10.8 5.5 20.7 5.5 74 0 37.2.1 42.3 1.5 42.4 2.7.1 32.4.1 34 0 1.3-.1 1.5-5.7 1.4-44.3-.2-54.2-1.1-68.5-5.1-81.3-5.5-17.5-17.1-28.2-34.6-31.8-13.6-2.9-32.7-1.4-43.4 3.4-2.3 1.1-4.5 1.9-4.8 1.9-.3 0-2.9 1.5-5.8 3.4-6.3 4.1-12.8 10.3-15.3 14.5-1 1.7-2.1 3.1-2.5 3.1-.4 0-1.2-1.5-2-3.3-3.2-7.9-8.9-13.6-18.4-18.2-12.8-6.3-32.2-8.1-47.7-4.4z"/></svg>